<svg width="37" height="37" viewBox="0 0 37 37" fill="none" xmlns="http://www.w3.org/2000/svg">
<path d="M22.3077 9.61538V7.07691C22.3077 6.40367 22.0402 5.758 21.5642 5.28195C21.0881 4.8059 20.4425 4.53845 19.7692 4.53845H17.2308" stroke="white" stroke-width="2.53846" stroke-linecap="round" stroke-linejoin="round"/>
<path d="M10.8846 27.3846H4.53846C3.86522 27.3846 3.21955 27.1172 2.7435 26.6411C2.26744 26.1651 2 25.5194 2 24.8461V7.07691C2 6.40367 2.26744 5.758 2.7435 5.28195C3.21955 4.8059 3.86522 4.53845 4.53846 4.53845H7.07692" stroke="white" stroke-width="2.53846" stroke-linecap="round" stroke-linejoin="round"/>
<path d="M32.4615 14.6923H19.7692C18.3673 14.6923 17.2308 15.8288 17.2308 17.2308V32.4616C17.2308 33.8635 18.3673 35 19.7692 35H32.4615C33.8635 35 35 33.8635 35 32.4616V17.2308C35 15.8288 33.8635 14.6923 32.4615 14.6923Z" stroke="white" stroke-width="2.53846" stroke-linecap="round" stroke-linejoin="round"/>
<path d="M17.8654 2H6.44231L7.48308 6.11231C7.54648 6.38755 7.70167 6.63301 7.92312 6.80833C8.14457 6.98364 8.41909 7.07837 8.70154 7.07692H15.6062C15.8886 7.07837 16.1631 6.98364 16.3846 6.80833C16.606 6.63301 16.7612 6.38755 16.8246 6.11231L17.8654 2Z" stroke="white" stroke-width="2.53846" stroke-linecap="round" stroke-linejoin="round"/>
<path d="M22.3077 22.3077H29.9231" stroke="white" stroke-width="2.53846" stroke-linecap="round" stroke-linejoin="round"/>
<path d="M22.3077 27.3846H29.9231" stroke="white" stroke-width="2.53846" stroke-linecap="round" stroke-linejoin="round"/>
</svg>
