<svg width="387" height="371" viewBox="0 0 387 371" fill="none" xmlns="http://www.w3.org/2000/svg">
<line x1="337.476" y1="350.691" x2="337.476" y2="250.936" stroke="#C9D0D2" stroke-width="10.991"/>
<path d="M317.21 235.589H357.222V242.146C357.222 246.395 353.778 249.84 349.528 249.84H325.162C321.028 249.84 317.633 246.573 317.474 242.442L317.21 235.589Z" fill="#CDD8DD"/>
<path d="M294.738 216.954H384.627V227.343C384.627 232.503 380.445 236.685 375.285 236.685H294.738V216.954Z" fill="#E1E7E9"/>
<path d="M315.566 356.172H359.415V345.783C359.415 340.623 355.232 336.441 350.072 336.441H324.908C319.749 336.441 315.566 340.623 315.566 345.783V356.172Z" fill="#E1E7E9"/>
<path d="M348.339 70.1305C357.091 80.5069 355.143 89.7074 345.712 107.881C353.048 138.695 355.419 156.582 361.059 189L292.546 182.423L289.805 173.653C287.82 151.231 285.966 140.568 281.584 124.324C274.641 115.305 270.619 111.659 262.948 110.621C266.055 97.4059 268.231 89.6691 275.359 75.3778C275.848 74.396 276.488 73.4913 277.262 72.7138C281.485 68.4717 283.904 66.8908 287.613 65.6765C291.86 70.0311 294.116 72.5737 300.767 74.9943C300.767 74.9943 301.109 84.2772 304.056 87.6007C305.263 83.5886 305.73 81.0024 305.7 74.9943C311.447 73.6189 315.009 70.0297 321.622 61.462C330.646 62.5038 336.047 63.9451 344.693 67.5262C346.09 68.1049 347.365 68.9746 348.339 70.1305Z" fill="#3456FF" stroke="#3456FF" stroke-width="1.0991"/>
<path d="M259.659 332.056H270.621L272.266 341.374L259.659 341.922V332.056Z" fill="#F48D72"/>
<path d="M313.374 317.722L323.975 314.935L327.935 323.528L315.883 327.264L313.374 317.722Z" fill="#F48D72"/>
<path d="M236.836 347.408C245.272 345.454 250.879 343.248 259.423 339.585C259.795 339.426 260.226 339.486 260.555 339.722C263.801 342.052 266.66 341.752 270.645 339.578C271.382 339.176 272.309 339.667 272.344 340.506L272.721 349.567C272.772 350.789 271.812 351.818 270.588 351.854C252.956 352.376 241.705 352.494 236.015 351.133C233.355 350.497 234.171 348.026 236.836 347.408Z" fill="#3456FF"/>
<path d="M295.139 338.565C302.762 334.456 307.589 330.85 314.866 325.065C315.182 324.813 315.614 324.757 315.994 324.898C319.739 326.29 322.418 325.247 325.689 322.1C326.294 321.518 327.317 321.747 327.572 322.547L330.325 331.187C330.696 332.353 330.041 333.599 328.87 333.957C311.999 339.108 301.177 342.187 295.33 342.374C292.596 342.462 292.732 339.863 295.139 338.565Z" fill="#3456FF"/>
<path d="M233.3 216.63C240.435 210.146 264.311 189.015 288.433 174.058C289.089 173.651 289.954 174.042 290.279 174.742C292.851 180.272 302.96 181.875 302.96 181.875L261.523 204.109C259.43 205.232 258.298 207.566 258.811 209.885C260.101 215.715 262.955 226.844 267.333 234.493C264.542 235.625 260.118 239.385 257.475 241.768C256.084 243.022 255.493 244.89 255.867 246.726C258.225 258.305 267.154 301.845 274.004 331.211C274.262 332.318 273.631 333.432 272.546 333.773C265.876 335.874 261.512 336.402 254.624 333.575C253.995 333.317 253.536 332.777 253.373 332.117C243.357 291.646 233.81 234.773 231.624 221.462C231.328 219.661 231.949 217.858 233.3 216.63Z" fill="#23212D" stroke="#23212D" stroke-width="1.0991"/>
<path d="M309.532 319.099C282.502 272.411 266.568 242.56 259.699 209.495C259.33 207.717 260.129 205.904 261.674 204.95C275.739 196.267 285.279 191.1 302.412 182.423C317.891 176.942 325.698 177.739 339.135 181.327C347.517 185.088 351.679 183.504 358.194 180.747C358.828 180.479 359.551 180.858 359.694 181.531C363.218 198.192 362.944 206.902 353.937 214.773C352.222 216.272 349.966 216.969 347.688 217C329.946 217.242 318.575 217.539 301.039 218.833C298.933 218.989 297.522 221.067 298.143 223.085C309.12 258.705 316.075 280.554 324.507 314.634C324.732 315.542 324.358 316.503 323.571 317.01C321.04 318.639 319.076 319.851 317.007 321.08C314.406 322.626 311.048 321.718 309.532 319.099Z" fill="#373541" stroke="#373541" stroke-width="1.0991"/>
<path d="M274.23 136.279C285.391 134.087 291.948 131.331 302.635 125.882C303.935 125.219 305.089 124.297 306.022 123.175C313.108 114.656 317.233 109.098 323.788 99.1109C330.394 103.333 333.773 107.319 339.683 115.006C331.17 127.923 326.54 135.375 315.506 144.522C314.121 145.671 312.447 146.419 310.676 146.736C302.628 148.179 297.043 149.031 286.517 150.085C238.659 151.846 227.352 150.938 193.228 150.649C191.897 150.638 190.597 150.145 189.602 149.26L184.159 144.422C182.381 142.842 184.03 139.957 186.294 140.687L192.809 142.788C193.159 142.902 193.532 142.955 193.901 142.946C216.356 142.366 229.569 137.716 251.802 128.096C253.364 127.42 254.762 126.395 255.801 125.046C259.58 120.14 261.328 116.288 264.044 111.717C271.634 115.673 276.151 118.315 281.035 125.42L274.23 136.279Z" fill="#F39177" stroke="#F39177" stroke-width="1.0991"/>
<path d="M284.872 21.828L268.977 20.1837C263.16 18.3744 259.659 16.347 259.111 9.76969C258.662 4.37725 260.805 2.27831 265.205 1.41331C267.287 1.0041 269.417 1.55126 271.303 2.52344C279.536 6.76838 284.799 8.24904 293.094 7.02916C309.381 2.84156 312.643 5.73176 311.729 16.8951H299.671L284.872 21.828Z" fill="#3B3A43" stroke="#3B3A43" stroke-width="1.0991"/>
<path d="M306.248 48.1371L309.538 49.1956C313.352 40.7609 313.936 34.6556 311.729 17.9913L298.575 17.9913L306.248 48.1371Z" fill="#292731" stroke="#292731" stroke-width="1.0991"/>
<path d="M308.441 47.589C311.438 56.5794 314.603 58.193 319.193 59.9504C319.881 60.2137 320.123 61.0626 319.675 61.6464L303.508 82.6677L286.517 66.7727L271.718 47.0409C269.67 38.1162 269.555 32.2368 270.021 21.873C270.049 21.2505 270.59 20.7763 271.212 20.8237C276.584 21.234 280.249 21.1577 285.656 20.5074C287.306 20.309 288.873 19.6894 290.283 18.8121C295.886 15.3275 298.577 14.9557 300.481 18.5114C300.678 18.88 300.735 19.3091 300.687 19.7245C300.275 23.2734 300.634 25.4788 301.979 28.2269C302.49 29.2711 303.771 29.6441 304.81 29.1242L308.127 27.4661C309.021 27.0191 309.999 27.9004 309.647 28.8359L306.128 38.1963C305.871 38.8806 305.744 39.6111 305.803 40.3398C306.044 43.3247 306.797 45.0094 308.441 47.589Z" fill="#F39177" stroke="#F39177" stroke-width="1.0991"/>
<path d="M274.438 61.4628C274.279 56.2418 273.332 52.4565 271.718 47.0409C276.34 45.5699 280.342 45.3947 287.002 46.1984C288.447 46.3729 289.735 47.1582 290.668 48.2757C294.339 52.673 296.468 53.085 298.822 50.1793C299.847 48.914 300.303 47.2965 300.465 45.676L301.644 33.891C301.712 33.212 302.711 33.2406 302.74 33.9224L303.477 51.2448C303.497 51.7181 303.364 52.1864 303.094 52.5758C299.212 58.1807 296.412 60.8714 290.353 64.0321C282.743 66.1116 278.977 66.2736 275.145 63.0084C274.695 62.625 274.457 62.0537 274.438 61.4628Z" fill="#3B3A41" stroke="#3B3A41" stroke-width="1.0991"/>
<path d="M290.139 172.998C289.777 172.51 289.089 172.409 288.601 172.771C288.114 173.133 288.013 173.822 288.375 174.309L290.139 172.998ZM360.039 181.135C360.538 180.79 360.664 180.106 360.319 179.606C359.974 179.107 359.29 178.981 358.79 179.326L360.039 181.135ZM288.375 174.309C290.644 177.363 292.963 179.419 295.423 180.628C297.898 181.843 300.439 182.165 303.081 181.871L302.838 179.686C300.547 179.941 298.437 179.659 296.393 178.655C294.335 177.643 292.268 175.863 290.139 172.998L288.375 174.309ZM303.081 181.871C305.577 181.594 312.652 180.641 320.284 180.232C324.098 180.028 328.025 179.961 331.565 180.18C335.125 180.4 338.2 180.905 340.36 181.795L341.197 179.762C338.699 178.733 335.334 178.211 331.7 177.986C328.046 177.76 324.026 177.83 320.166 178.037C312.451 178.45 305.275 179.415 302.838 179.686L303.081 181.871ZM340.36 181.795C345.156 183.77 349.114 184.284 352.378 183.951C355.645 183.617 358.148 182.44 360.039 181.135L358.79 179.326C357.149 180.459 354.992 181.474 352.155 181.764C349.313 182.055 345.72 181.624 341.197 179.762L340.36 181.795Z" fill="#FFEFFF"/>
<path d="M324.96 97.1102C324.461 96.7653 323.776 96.8907 323.431 97.3903C323.086 97.8898 323.212 98.5743 323.711 98.9192L324.96 97.1102ZM339.873 114.532C340.217 115.032 340.901 115.159 341.401 114.816C341.902 114.472 342.029 113.788 341.685 113.287L339.873 114.532ZM323.711 98.9192C331.408 104.233 334.855 107.228 339.873 114.532L341.685 113.287C336.473 105.701 332.805 102.526 324.96 97.1102L323.711 98.9192Z" fill="#FFEFFF"/>
<path d="M263.314 110.133C262.742 109.931 262.114 110.231 261.912 110.803C261.709 111.375 262.009 112.003 262.582 112.205L263.314 110.133ZM280.142 126.609C280.496 127.102 281.183 127.215 281.676 126.861C282.169 126.508 282.282 125.821 281.929 125.328L280.142 126.609ZM262.582 112.205C266.367 113.544 269.171 114.967 271.803 117.11C274.451 119.266 276.975 122.191 280.142 126.609L281.929 125.328C278.719 120.851 276.062 117.742 273.191 115.405C270.305 113.056 267.255 111.526 263.314 110.133L262.582 112.205Z" fill="#FFEFFF"/>
<path d="M286.463 66.4251C286.271 65.8492 285.649 65.538 285.073 65.73C284.497 65.9219 284.186 66.5444 284.378 67.1202L286.463 66.4251ZM321.414 61.9007C321.75 61.3954 321.613 60.7131 321.108 60.3767C320.603 60.0403 319.921 60.1773 319.584 60.6826L321.414 61.9007ZM299.123 78.831L300.174 78.51C300.107 78.2894 299.972 78.0956 299.788 77.9561L299.123 78.831ZM303.508 85.4083L302.693 86.1455L303.534 87.076L304.346 86.1193L303.508 85.4083ZM306.248 78.831L305.476 78.0493L305.212 78.3103L305.16 78.6779L306.248 78.831ZM299.788 77.9561C295.54 74.7259 292.276 72.1408 290.011 70.1654C288.877 69.1767 288.012 68.357 287.406 67.6972C286.766 67.0012 286.52 66.5948 286.463 66.4251L284.378 67.1202C284.595 67.7727 285.136 68.4764 285.788 69.1852C286.473 69.9302 287.405 70.81 288.566 71.8221C290.889 73.8483 294.202 76.4701 298.458 79.7059L299.788 77.9561ZM304.323 84.671C301.511 81.5623 300.716 80.2842 300.174 78.51L298.072 79.152C298.76 81.4055 299.829 82.9793 302.693 86.1455L304.323 84.671ZM319.584 60.6826C314.768 67.918 311.824 71.7747 305.476 78.0493L307.021 79.6127C313.5 73.2088 316.536 69.2283 321.414 61.9007L319.584 60.6826ZM305.16 78.6779C304.966 80.059 304.779 81.0246 304.434 81.9085C304.096 82.7759 303.584 83.6196 302.67 84.6972L304.346 86.1193C305.372 84.91 306.034 83.8591 306.483 82.7066C306.925 81.5707 307.139 80.391 307.337 78.9841L305.16 78.6779Z" fill="#FFEFFF"/>
<path d="M213.865 358.551L212.522 168.72L218.391 170.17L217.153 358.551H213.865Z" fill="#B8C3C8" stroke="#B8C3C8" stroke-width="1.0991"/>
<path d="M213.865 358.551L212.522 168.72L218.391 170.17L217.153 358.551H213.865Z" fill="#B8C3C8" stroke="#B8C3C8" stroke-width="1.0991"/>
<path d="M293.799 345.21L292.546 164.335L298.027 165.717L296.871 345.21H293.799Z" fill="#B8C3C8" stroke="#B8C3C8" stroke-width="1.0991"/>
<path d="M123.887 341.922L122.633 168.72L128.114 170.043L126.958 341.922H123.887Z" fill="#B8C3C8" stroke="#B8C3C8" stroke-width="1.0991"/>
<path d="M30.7974 358.551L29.455 168.72L35.3237 170.17L34.086 358.551H30.7974Z" fill="#B8C3C8" stroke="#B8C3C8" stroke-width="1.0991"/>
<path d="M217.994 170.365L29.4454 170.365L29.4454 166.528L217.994 166.528L217.994 170.365Z" fill="#AFB8BC" stroke="#AFB8BC" stroke-width="1.0991"/>
<path d="M298.004 170.365L217.981 170.365L217.981 166.528L298.004 166.528L298.004 170.365Z" fill="#8F979B" stroke="#8F979B" stroke-width="1.0991"/>
<path d="M202.63 156.114L0.926798 156.114L0.926792 165.98L202.63 165.98L202.63 156.114Z" fill="#CDD8DD" stroke="#CDD8DD" stroke-width="1.0991"/>
<path d="M317.805 156.116L202.703 156.116L202.703 166.528L317.805 166.528L317.805 156.116Z" fill="#B6C0C6" stroke="#B6C0C6" stroke-width="1.0991"/>
<path d="M169.121 94.0019L123.08 94.0019L142.812 152.101L189.401 152.101L169.121 94.0019Z" fill="#ECF0F1" stroke="#ECF0F1" stroke-width="2.19819"/>
<path d="M190.558 151.73L144.009 151.73C143.787 153.125 144.119 153.829 145.105 155.018L192.242 155.018L190.558 151.73Z" fill="#B8C3C8" stroke="#B8C3C8" stroke-width="1.0991"/>
<path d="M253.111 151.73L190.641 151.464C190.992 153.44 191.517 154.157 192.82 154.999L253.127 155.256L253.111 151.73Z" fill="#8E949B" stroke="#8E949B" stroke-width="1.0991"/>
</svg>
