<?xml version="1.0" standalone="no"?>
<!DOCTYPE svg PUBLIC "-//W3C//DTD SVG 20010904//EN"
 "http://www.w3.org/TR/2001/REC-SVG-20010904/DTD/svg10.dtd">
<svg version="1.0" xmlns="http://www.w3.org/2000/svg"
 width="512.000000pt" height="512.000000pt" viewBox="0 0 512.000000 512.000000"
 preserveAspectRatio="xMidYMid meet">
<metadata>
Created by potrace 1.14, written by Peter Selinger 2001-2017
</metadata>
<g transform="translate(0.000000,512.000000) scale(0.100000,-0.100000)"
fill="#000000" stroke="none">
<path d="M2300 4335 c-727 -100 -1329 -640 -1509 -1353 -49 -191 -51 -239 -51
-1079 l0 -790 64 -74 c34 -41 108 -117 162 -169 l99 -95 6 985 c5 970 5 986
27 1082 71 310 200 548 416 764 264 263 567 403 939 433 498 41 994 -184 1296
-586 135 -179 222 -372 273 -600 30 -134 32 -444 4 -573 -89 -415 -302 -735
-640 -962 -153 -102 -308 -170 -491 -213 -214 -51 -410 -56 -632 -14 l-113 21
0 410 c0 225 3 408 8 406 4 -2 30 -15 57 -29 133 -70 333 -97 484 -65 94 20
239 91 313 153 267 224 340 599 176 903 -96 178 -256 306 -453 361 -101 28
-257 30 -360 5 -207 -50 -382 -193 -481 -391 -78 -157 -74 -92 -72 -1376 l3
-1142 45 -14 c71 -21 243 -63 263 -63 16 0 17 19 17 250 0 138 3 250 8 250 4
0 48 -8 97 -17 112 -21 441 -24 560 -5 202 33 382 93 575 193 167 87 287 176
435 324 151 150 238 269 329 445 263 510 272 1093 26 1608 -269 560 -786 937
-1397 1017 -137 18 -352 18 -483 0z"/>
</g>
</svg>
